<svg width="80" height="80" viewBox="0 0 80 80" fill="none" xmlns="http://www.w3.org/2000/svg">
<mask id="mask0_3661_1127" style="mask-type:alpha" maskUnits="userSpaceOnUse" x="0" y="0" width="80" height="80">
<circle cx="40" cy="40" r="40" fill="white"/>
</mask>
<g mask="url(#mask0_3661_1127)">
<path d="M47.069 65.1136C46.2105 65.0251 45.764 61.4125 45.8796 58.1558C51.0001 56.0038 54.0351 50.6334 54.8401 43.5672C56.0778 43.4005 57.059 41.4642 57.059 39.0754C57.059 36.6004 56.0099 34.5963 54.7125 34.5573C53.6099 26.8997 49.7138 20 40.5209 20C31.3275 20 27.4327 26.8971 26.3293 34.5512H26.3248C25.007 34.5512 23.9375 36.5756 23.9375 39.076C23.9375 41.4926 24.9409 43.4482 26.1986 43.5753C27.0044 50.6198 30.0216 55.9771 35.1182 58.1385C35.2321 61.399 34.7869 65.0262 33.927 65.1147C21.229 66.08 12 69.753 12 73.8882L12 88H69V73.8882C69 69.7534 59.7697 66.079 47.069 65.1136Z" fill="#303342"/>
</g>
</svg>