<svg width="30" height="21" viewBox="0 0 30 21" fill="none" xmlns="http://www.w3.org/2000/svg">
<path d="M20.4644 13.9143C20.1746 13.9143 19.8966 14.0294 19.6917 14.2344C19.4867 14.4393 19.3716 14.7173 19.3716 15.0071C19.3716 15.297 19.4867 15.575 19.6917 15.7799C19.8966 15.9849 20.1746 16.1 20.4644 16.1H24.1073C24.3971 16.1 24.6751 15.9849 24.8801 15.7799C25.085 15.575 25.2001 15.297 25.2001 15.0071C25.2001 14.7173 25.085 14.4393 24.8801 14.2344C24.6751 14.0294 24.3971 13.9143 24.1073 13.9143H20.4644ZM3.768 0.0714264C2.88236 0.0714264 2.033 0.423243 1.40677 1.04948C0.780528 1.67572 0.428711 2.52508 0.428711 3.41071V17.375C0.428711 18.2606 0.780528 19.11 1.40677 19.7362C2.033 20.3625 2.88236 20.7143 3.768 20.7143H26.2323C27.1179 20.7143 27.9673 20.3625 28.5935 19.7362C29.2198 19.11 29.5716 18.2606 29.5716 17.375V3.41071C29.5716 2.52508 29.2198 1.67572 28.5935 1.04948C27.9673 0.423243 27.1179 0.0714264 26.2323 0.0714264H3.768ZM2.25014 17.375V7.96428H27.7501V17.375C27.7501 18.2129 27.0701 18.8929 26.2323 18.8929H3.768C2.93014 18.8929 2.25014 18.2129 2.25014 17.375ZM2.25014 6.14285V3.41071C2.25014 2.57285 2.93014 1.89285 3.768 1.89285H26.2323C27.0701 1.89285 27.7501 2.57285 27.7501 3.41071V6.14285H2.25014Z" fill="#656565"/>
</svg>


