<svg width="25" height="25" viewBox="0 0 26 25" fill="none" xmlns="http://www.w3.org/2000/svg">
<path d="M13 0C15.0687 0 17.0526 0.821783 18.5154 2.28457C19.9782 3.74735 20.8 5.73131 20.8 7.8V9.1H26V11.7H24.4829L23.4988 23.5079C23.4717 23.8328 23.3236 24.1356 23.0838 24.3564C22.844 24.5772 22.53 24.6998 22.204 24.7H3.796C3.47002 24.6998 3.156 24.5772 2.91619 24.3564C2.67637 24.1356 2.52826 23.8328 2.5012 23.5079L1.5158 11.7H0V9.1H5.2V7.8C5.2 5.73131 6.02178 3.74735 7.48457 2.28457C8.94735 0.821783 10.9313 0 13 0V0ZM21.8738 11.7H4.1249L4.992 22.1H21.0067L21.8738 11.7ZM14.3 14.3V19.5H11.7V14.3H14.3ZM9.1 14.3V19.5H6.5V14.3H9.1ZM19.5 14.3V19.5H16.9V14.3H19.5ZM13 2.6C11.6659 2.6 10.3828 3.11277 9.41614 4.03224C8.44949 4.95172 7.87321 6.20755 7.8065 7.54L7.8 7.8V9.1H18.2V7.8C18.2 6.46588 17.6872 5.1828 16.7678 4.21614C15.8483 3.24949 14.5924 2.67321 13.26 2.6065L13 2.6Z" fill="black"/>
</svg>

