<svg width="16" height="16" viewBox="0 0 16 16" fill="none" xmlns="http://www.w3.org/2000/svg">
<path d="M15.9094 4.21056C15.8633 4.14509 15.8022 4.09166 15.7312 4.05476C15.6601 4.01787 15.5812 3.99858 15.5012 3.99853H4.83625L4.02896 1.21458C3.71237 0.118343 2.96009 0 2.65155 0H0.499015C0.223117 0 0 0.223369 0 0.498999C0 0.77463 0.223369 0.997983 0.498999 0.997983H2.65128C2.71937 0.997983 2.92716 0.997983 3.06889 1.48769L5.84605 11.6941C5.90635 11.9094 6.10258 12.0581 6.32644 12.0581H13.1099C13.3205 12.0581 13.5084 11.9262 13.5795 11.728L15.9705 4.66634C16.0255 4.51332 16.0027 4.34297 15.9094 4.21056H15.9094ZM12.7587 11.0604H6.70519L5.11674 4.99678H14.7917L12.7587 11.0604ZM11.7691 13.0695C11.0751 13.0695 10.5128 13.6318 10.5128 14.3257C10.5128 15.0197 11.0751 15.582 11.7691 15.582C12.463 15.582 13.0253 15.0197 13.0253 14.3257C13.0253 13.6318 12.463 13.0695 11.7691 13.0695ZM7.2464 13.0695C6.55243 13.0695 5.99011 13.6318 5.99011 14.3257C5.99011 15.0197 6.55243 15.582 7.2464 15.582C7.94038 15.582 8.5027 15.0197 8.5027 14.3257C8.5027 13.6318 7.94038 13.0695 7.2464 13.0695Z" fill="#313131"/>
</svg>
