<svg width="25" height="25" viewBox="0 0 24 26" fill="none" xmlns="http://www.w3.org/2000/svg">
<path d="M20.4444 13.8542V11.5556H18.6667V14.2222C18.6667 14.458 18.7604 14.684 18.9271 14.8507L21.3333 17.2569V18.6667H1.77778V17.2569L4.184 14.8507C4.35071 14.684 4.44439 14.458 4.44444 14.2222V10.6667C4.44197 9.41759 4.76916 8.18999 5.39297 7.10784C6.01678 6.02569 6.91511 5.12732 7.99724 4.50347C9.07937 3.87963 10.307 3.55239 11.556 3.55483C12.8051 3.55726 14.0314 3.88927 15.1111 4.51733V2.53067C14.265 2.15602 13.365 1.91723 12.4444 1.82311V0H10.6667V1.82222C8.47518 2.04527 6.44423 3.07299 4.96655 4.70665C3.48887 6.34031 2.66942 8.46386 2.66667 10.6667V13.8542L0.260444 16.2604C0.0937339 16.4271 5.03444e-05 16.6532 0 16.8889V19.5556C0 19.7913 0.0936505 20.0174 0.260349 20.1841C0.427048 20.3508 0.653141 20.4444 0.888889 20.4444H7.11111V21.3333C7.11111 22.5121 7.57936 23.6425 8.41286 24.476C9.24635 25.3095 10.3768 25.7778 11.5556 25.7778C12.7343 25.7778 13.8648 25.3095 14.6983 24.476C15.5317 23.6425 16 22.5121 16 21.3333V20.4444H22.2222C22.458 20.4444 22.6841 20.3508 22.8508 20.1841C23.0175 20.0174 23.1111 19.7913 23.1111 19.5556V16.8889C23.1111 16.6532 23.0174 16.4271 22.8507 16.2604L20.4444 13.8542ZM14.2222 21.3333C14.2222 22.0406 13.9413 22.7189 13.4412 23.219C12.9411 23.719 12.2628 24 11.5556 24C10.8483 24 10.17 23.719 9.66994 23.219C9.16984 22.7189 8.88889 22.0406 8.88889 21.3333V20.4444H14.2222V21.3333Z" fill="black"/>
</svg>
