<svg width="18" height="18" viewBox="0 0 18 18" fill="none" xmlns="http://www.w3.org/2000/svg">
<path d="M9 1.3125C9.6226 1.31246 10.2216 1.55067 10.6742 1.97825C11.1267 2.40584 11.3985 2.9904 11.4338 3.612L11.4375 3.75H15.375C15.5175 3.75004 15.6547 3.80418 15.7588 3.90148C15.863 3.99878 15.9263 4.13197 15.936 4.27416C15.9457 4.41635 15.9011 4.55692 15.8112 4.66747C15.7212 4.77803 15.5927 4.85032 15.4515 4.86975L15.375 4.875H14.778L13.818 14.64C13.7699 15.1268 13.5503 15.5807 13.1985 15.9206C12.8466 16.2605 12.3855 16.4643 11.8973 16.4955L11.7653 16.5H6.23475C5.74535 16.5 5.27189 16.3259 4.899 16.009C4.52612 15.692 4.27809 15.2528 4.19925 14.7698L4.182 14.6393L3.22125 4.875H2.625C2.48907 4.87499 2.35774 4.82577 2.2553 4.73643C2.15286 4.64708 2.08624 4.52367 2.06775 4.389L2.0625 4.3125C2.06251 4.17657 2.11173 4.04524 2.20108 3.9428C2.29042 3.84036 2.41383 3.77374 2.5485 3.75525L2.625 3.75H6.5625C6.5625 3.10354 6.81931 2.48355 7.27643 2.02643C7.73355 1.56931 8.35354 1.3125 9 1.3125ZM13.6478 4.875H4.3515L5.30175 14.529C5.32279 14.7444 5.41772 14.9459 5.57042 15.0993C5.72312 15.2527 5.92419 15.3485 6.1395 15.3705L6.23475 15.375H11.7653C12.2153 15.375 12.597 15.0563 12.684 14.6235L12.699 14.529L13.647 4.875H13.6478ZM10.3125 6.9375C10.4484 6.93751 10.5798 6.98673 10.6822 7.07608C10.7846 7.16542 10.8513 7.28884 10.8698 7.4235L10.875 7.5V12.75C10.875 12.8925 10.8208 13.0297 10.7235 13.1338C10.6262 13.238 10.493 13.3013 10.3508 13.311C10.2087 13.3207 10.0681 13.2761 9.95753 13.1862C9.84697 13.0962 9.77468 12.9677 9.75525 12.8265L9.75 12.75V7.5C9.75 7.35082 9.80926 7.20774 9.91475 7.10225C10.0202 6.99676 10.1633 6.9375 10.3125 6.9375ZM7.6875 6.9375C7.82343 6.93751 7.95476 6.98673 8.0572 7.07608C8.15964 7.16542 8.22626 7.28884 8.24475 7.4235L8.25 7.5V12.75C8.24996 12.8925 8.19582 13.0297 8.09852 13.1338C8.00122 13.238 7.86803 13.3013 7.72584 13.311C7.58365 13.3207 7.44308 13.2761 7.33253 13.1862C7.22197 13.0962 7.14968 12.9677 7.13025 12.8265L7.125 12.75V7.5C7.125 7.35082 7.18426 7.20774 7.28975 7.10225C7.39524 6.99676 7.53832 6.9375 7.6875 6.9375ZM9 2.4375C8.67061 2.43751 8.35326 2.56138 8.11096 2.78451C7.86865 3.00764 7.7191 3.31372 7.692 3.642L7.6875 3.75H10.3125C10.3125 3.4019 10.1742 3.06806 9.92808 2.82192C9.68194 2.57578 9.3481 2.4375 9 2.4375Z" fill="#313131"/>
</svg>
