<svg width="20" height="12" viewBox="0 0 20 12" fill="none" xmlns="http://www.w3.org/2000/svg">
<path d="M0 10.8333C0 10.6123 0.0877975 10.4004 0.244078 10.2441C0.400358 10.0878 0.61232 10 0.833333 10H5.83333C6.05435 10 6.26631 10.0878 6.42259 10.2441C6.57887 10.4004 6.66667 10.6123 6.66667 10.8333C6.66667 11.0543 6.57887 11.2663 6.42259 11.4226C6.26631 11.5789 6.05435 11.6667 5.83333 11.6667H0.833333C0.61232 11.6667 0.400358 11.5789 0.244078 11.4226C0.0877975 11.2663 0 11.0543 0 10.8333ZM0 5.83333C0 5.61232 0.0877975 5.40036 0.244078 5.24408C0.400358 5.0878 0.61232 5 0.833333 5H12.5C12.721 5 12.933 5.0878 13.0893 5.24408C13.2455 5.40036 13.3333 5.61232 13.3333 5.83333C13.3333 6.05435 13.2455 6.26631 13.0893 6.42259C12.933 6.57887 12.721 6.66667 12.5 6.66667H0.833333C0.61232 6.66667 0.400358 6.57887 0.244078 6.42259C0.0877975 6.26631 0 6.05435 0 5.83333ZM0 0.833333C0 0.61232 0.0877975 0.400358 0.244078 0.244078C0.400358 0.0877975 0.61232 0 0.833333 0H19.1667C19.3877 0 19.5996 0.0877975 19.7559 0.244078C19.9122 0.400358 20 0.61232 20 0.833333C20 1.05435 19.9122 1.26631 19.7559 1.42259C19.5996 1.57887 19.3877 1.66667 19.1667 1.66667H0.833333C0.61232 1.66667 0.400358 1.57887 0.244078 1.42259C0.0877975 1.26631 0 1.05435 0 0.833333Z" fill="white"/>
</svg>
