<svg width="16" height="16" viewBox="0 0 16 16" fill="none" xmlns="http://www.w3.org/2000/svg">
<path d="M13.6642 3.75133C13.9573 3.85434 14.2112 4.04584 14.3908 4.29938C14.5704 4.55291 14.6669 4.85596 14.6668 5.16666V11.8333C14.6668 12.5848 14.3683 13.3054 13.837 13.8368C13.3056 14.3682 12.5849 14.6667 11.8335 14.6667H5.16683C4.85612 14.6667 4.55308 14.5703 4.29954 14.3906C4.04601 14.211 3.85451 13.9571 3.7515 13.664L5.1495 13.6667H11.8335C12.3197 13.6667 12.786 13.4735 13.1299 13.1297C13.4737 12.7859 13.6668 12.3196 13.6668 11.8333V5.16666L13.6642 5.13266V3.75133ZM11.4975 1.33333C11.8953 1.33333 12.2769 1.49136 12.5582 1.77267C12.8395 2.05397 12.9975 2.4355 12.9975 2.83333V11.498C12.9975 11.8958 12.8395 12.2774 12.5582 12.5587C12.2769 12.84 11.8953 12.998 11.4975 12.998H2.8335C2.43567 12.998 2.05414 12.84 1.77284 12.5587C1.49153 12.2774 1.3335 11.8958 1.3335 11.498V2.83333C1.3335 2.4355 1.49153 2.05397 1.77284 1.77267C2.05414 1.49136 2.43567 1.33333 2.8335 1.33333H11.4982H11.4975ZM11.4975 2.33333H2.8335C2.70089 2.33333 2.57371 2.38601 2.47994 2.47977C2.38617 2.57354 2.3335 2.70072 2.3335 2.83333V11.498C2.3335 11.774 2.5575 11.998 2.8335 11.998H11.4982C11.6308 11.998 11.7579 11.9453 11.8517 11.8515C11.9455 11.7578 11.9982 11.6306 11.9982 11.498V2.83333C11.9982 2.70072 11.9455 2.57354 11.8517 2.47977C11.7579 2.38601 11.6308 2.33333 11.4982 2.33333H11.4975ZM7.16683 4.49999C7.29944 4.49999 7.42661 4.55267 7.52038 4.64644C7.61415 4.74021 7.66683 4.86739 7.66683 4.99999V6.66666H9.3335C9.4661 6.66666 9.59328 6.71934 9.68705 6.81311C9.78082 6.90688 9.8335 7.03405 9.8335 7.16666C9.8335 7.29927 9.78082 7.42645 9.68705 7.52022C9.59328 7.61398 9.4661 7.66666 9.3335 7.66666H7.66683V9.33333C7.66683 9.46594 7.61415 9.59311 7.52038 9.68688C7.42661 9.78065 7.29944 9.83333 7.16683 9.83333C7.03422 9.83333 6.90704 9.78065 6.81328 9.68688C6.71951 9.59311 6.66683 9.46594 6.66683 9.33333V7.66666H5.00016C4.86755 7.66666 4.74038 7.61398 4.64661 7.52022C4.55284 7.42645 4.50016 7.29927 4.50016 7.16666C4.50016 7.03405 4.55284 6.90688 4.64661 6.81311C4.74038 6.71934 4.86755 6.66666 5.00016 6.66666H6.66683V4.99999C6.66683 4.86739 6.71951 4.74021 6.81328 4.64644C6.90704 4.55267 7.03422 4.49999 7.16683 4.49999Z" fill="#313131"/>
</svg>
