<svg width="24" height="24" viewBox="0 0 24 24" fill="none" xmlns="http://www.w3.org/2000/svg">
<path d="M12 0.75C18.2139 0.75 23.25 5.78613 23.25 12V22.5469C23.25 22.9365 22.9365 23.25 22.5469 23.25H17.1562C16.1221 23.25 15.2812 22.4092 15.2812 21.375V15.2812C15.2812 14.2471 16.1221 13.4062 17.1562 13.4062H21.1406V12C21.1406 6.95215 17.0479 2.85938 12 2.85938C6.95215 2.85938 2.85938 6.95215 2.85938 12V13.4062H6.84375C7.87793 13.4062 8.71875 14.2471 8.71875 15.2812V21.375C8.71875 22.4092 7.87793 23.25 6.84375 23.25H1.45312C1.06348 23.25 0.75 22.9365 0.75 22.5469V12C0.75 5.78613 5.78613 0.75 12 0.75ZM17.3906 15.5156V21.1406H21.1406V15.5156H17.3906ZM2.85938 21.1406H6.60938V15.5156H2.85938V21.1406Z" fill="#656565"/>
</svg>


