<svg width="14" height="14" viewBox="0 0 14 14" fill="none" xmlns="http://www.w3.org/2000/svg">
<path d="M13.4872 5.27778L9.06266 0.852614C8.51506 0.306609 7.7733 0 7 0C6.2267 0 5.48494 0.306609 4.93734 0.852614L0.512757 5.27778C0.349671 5.43982 0.220373 5.63262 0.132355 5.845C0.0443375 6.05738 -0.000647733 6.28513 7.04636e-06 6.51502V12.2416C7.04636e-06 12.7057 0.184381 13.1508 0.51257 13.479C0.840758 13.8072 1.28588 13.9916 1.75001 13.9916H12.25C12.7141 13.9916 13.1592 13.8072 13.4874 13.479C13.8156 13.1508 14 12.7057 14 12.2416V6.51502C14.0006 6.28513 13.9557 6.05738 13.8676 5.845C13.7796 5.63262 13.6503 5.43982 13.4872 5.27778ZM8.75 12.8249H5.25V10.5301C5.25 10.066 5.43438 9.62086 5.76256 9.29267C6.09075 8.96448 6.53587 8.78011 7 8.78011C7.46413 8.78011 7.90925 8.96448 8.23744 9.29267C8.56562 9.62086 8.75 10.066 8.75 10.5301V12.8249ZM12.8333 12.2416C12.8333 12.3963 12.7719 12.5447 12.6625 12.6541C12.5531 12.7635 12.4047 12.8249 12.25 12.8249H9.91666V10.5301C9.91666 9.75656 9.60937 9.01469 9.06239 8.46771C8.51541 7.92073 7.77355 7.61344 7 7.61344C6.22645 7.61344 5.48459 7.92073 4.93761 8.46771C4.39063 9.01469 4.08334 9.75656 4.08334 10.5301V12.8249H1.75001C1.5953 12.8249 1.44692 12.7635 1.33753 12.6541C1.22813 12.5447 1.16667 12.3963 1.16667 12.2416V6.51502C1.16721 6.36043 1.22862 6.21227 1.33759 6.10261L5.76217 1.6792C6.09099 1.35191 6.53605 1.16816 7 1.16816C7.46394 1.16816 7.90901 1.35191 8.23783 1.6792L12.6624 6.10436C12.771 6.21358 12.8323 6.36104 12.8333 6.51502V12.2416Z" fill="#313131"/>
</svg>
