<svg width="22" height="22" viewBox="0 0 22 22" fill="none" xmlns="http://www.w3.org/2000/svg">
<path d="M11.2274 0.92188C7.65314 0.912505 4.50783 2.76172 2.71018 5.55548C2.63049 5.67969 2.71955 5.84376 2.86721 5.84376H4.51486C4.62736 5.84376 4.73283 5.79454 4.80314 5.70782C4.96721 5.5086 5.14299 5.31641 5.32814 5.1336C6.09221 4.37188 6.98049 3.77188 7.96955 3.35469C8.99142 2.92344 10.0789 2.70313 11.2016 2.70313C12.3242 2.70313 13.4117 2.9211 14.4336 3.35469C15.4227 3.77188 16.311 4.37188 17.075 5.1336C17.8391 5.89532 18.4367 6.7836 18.8563 7.77032C19.2899 8.7922 19.5078 9.87735 19.5078 11C19.5078 12.1227 19.2875 13.2078 18.8563 14.2297C18.4391 15.2164 17.8391 16.1047 17.075 16.8664C16.311 17.6281 15.4227 18.2281 14.4336 18.6453C13.4109 19.0773 12.3117 19.2989 11.2016 19.2969C10.0789 19.2969 8.99142 19.0766 7.96955 18.6453C6.98243 18.2286 6.08543 17.6245 5.32814 16.8664C5.14299 16.6813 4.96955 16.4891 4.80314 16.2922C4.73283 16.2055 4.62502 16.1563 4.51486 16.1563H2.86721C2.71955 16.1563 2.62814 16.3203 2.71018 16.4445C4.50549 19.2313 7.63674 21.0781 11.2016 21.0781C16.7375 21.0781 21.2328 16.6227 21.2891 11.1031C21.3453 5.49454 16.843 0.935942 11.2274 0.92188ZM8.2583 13.625V11.8438H0.898926C0.795801 11.8438 0.711426 11.7594 0.711426 11.6563V10.3438C0.711426 10.2406 0.795801 10.1563 0.898926 10.1563H8.2583V8.37501C8.2583 8.21798 8.44111 8.12891 8.56299 8.22735L11.8888 10.8524C11.9112 10.8699 11.9293 10.8923 11.9418 10.9179C11.9542 10.9435 11.9607 10.9716 11.9607 11C11.9607 11.0285 11.9542 11.0566 11.9418 11.0821C11.9293 11.1077 11.9112 11.1301 11.8888 11.1477L8.56299 13.7727C8.44111 13.8688 8.2583 13.782 8.2583 13.625Z" fill="black"/>
</svg>


