<svg width="16" height="16" viewBox="0 0 16 16" fill="none" xmlns="http://www.w3.org/2000/svg">
<path d="M6.66693 3.5556H10.6669V4.44449H6.66693V3.5556Z" fill="black"/>
<path d="M6.66693 5.33328H10.6669V6.22217H6.66693V5.33328Z" fill="black"/>
<path d="M6.66693 7.11115H10.6669V8.00003H6.66693V7.11115Z" fill="black"/>
<path d="M6.66693 8.88885H10.6669V9.77774H6.66693V8.88885Z" fill="black"/>
<path d="M6.66693 10.6667H10.6669V11.5556H6.66693V10.6667Z" fill="black"/>
<path d="M4.88931 3.5556H5.7782V4.44449H4.88931V3.5556Z" fill="black"/>
<path d="M4.88931 5.33328H5.7782V6.22217H4.88931V5.33328Z" fill="black"/>
<path d="M4.88931 7.11115H5.7782V8.00003H4.88931V7.11115Z" fill="black"/>
<path d="M4.88931 8.88885H5.7782V9.77774H4.88931V8.88885Z" fill="black"/>
<path d="M4.88931 10.6667H5.7782V11.5556H4.88931V10.6667Z" fill="black"/>
<path d="M12.4447 0.888855H3.55582C3.32007 0.888855 3.09398 0.982505 2.92728 1.1492C2.76058 1.3159 2.66693 1.542 2.66693 1.77774V14.2222C2.66693 14.4579 2.76058 14.684 2.92728 14.8507C3.09398 15.0174 3.32007 15.1111 3.55582 15.1111H12.4447C12.6805 15.1111 12.9066 15.0174 13.0732 14.8507C13.2399 14.684 13.3336 14.4579 13.3336 14.2222V1.77774C13.3336 1.542 13.2399 1.3159 13.0732 1.1492C12.9066 0.982505 12.6805 0.888855 12.4447 0.888855ZM12.4447 14.2222H3.55582V1.77774H12.4447V14.2222Z" fill="black"/>
</svg>
