<svg width="12" height="16" viewBox="0 0 12 16" fill="none" xmlns="http://www.w3.org/2000/svg">
<path d="M1.17828 4.91525C0.963404 3.5 1.96128 2.22875 3.48565 1.763C3.75617 1.6803 4.04804 1.70384 4.30179 1.82884C4.55555 1.95384 4.7521 2.17088 4.8514 2.43575L5.34078 3.74076C5.41956 3.95069 5.4338 4.17939 5.38169 4.39748C5.32957 4.61557 5.21347 4.81312 5.04828 4.96476L3.59253 6.29788C3.52077 6.36373 3.4673 6.44705 3.43733 6.53972C3.40737 6.63238 3.40192 6.73123 3.42153 6.82663L3.43503 6.88513L3.4699 7.03138C3.65095 7.74198 3.9268 8.42499 4.29003 9.06201C4.6857 9.73892 5.17674 10.3554 5.74803 10.8924L5.79303 10.9329C5.86571 10.9974 5.95385 11.042 6.04888 11.0623C6.14391 11.0826 6.24259 11.0779 6.33528 11.0488L8.2174 10.4559C8.4313 10.3887 8.66039 10.387 8.87527 10.4509C9.09015 10.5149 9.28102 10.6416 9.4234 10.8148L10.3144 11.8959C10.6857 12.3459 10.6407 13.0074 10.2143 13.4045C9.04766 14.4924 7.4434 14.7151 6.3274 13.8185C4.95943 12.7151 3.80623 11.3693 2.9254 9.84838C2.03743 8.32866 1.4443 6.65499 1.17715 4.91525H1.17828ZM4.60165 6.90088L5.80765 5.79388C6.13822 5.49073 6.37064 5.09571 6.47508 4.65951C6.57952 4.22332 6.55121 3.76587 6.39378 3.34588L5.90553 2.04088C5.70567 1.50791 5.3101 1.0712 4.79945 0.819736C4.28879 0.568274 3.70147 0.520985 3.15715 0.687505C1.26378 1.26688 -0.256096 2.9645 0.0656542 5.08513C0.290654 6.56563 0.809279 8.44888 1.9534 10.4154C2.9037 12.0553 4.14767 13.5063 5.62315 14.696C7.29715 16.0404 9.5314 15.5814 10.9827 14.2291C11.3979 13.8425 11.65 13.312 11.6874 12.7458C11.7248 12.1797 11.5448 11.6206 11.184 11.1826L10.293 10.1004C10.008 9.75442 9.62612 9.50148 9.19638 9.374C8.76663 9.24652 8.30861 9.25031 7.88103 9.38488L6.3184 9.87651C5.91495 9.46052 5.56154 8.99875 5.2654 8.50063C4.97934 7.99704 4.75641 7.46012 4.60165 6.90201V6.90088Z" fill="black"/>
</svg>
