<svg width="13" height="14" viewBox="0 0 13 14" fill="none" xmlns="http://www.w3.org/2000/svg">
<path d="M6.5 0.416672C5.79952 0.416672 5.11478 0.624387 4.53236 1.01355C3.94993 1.40271 3.49599 1.95585 3.22793 2.603C2.95987 3.25016 2.88973 3.96227 3.02639 4.64928C3.16304 5.3363 3.50035 5.96736 3.99566 6.46267C4.49097 6.95799 5.12204 7.2953 5.80905 7.43195C6.49607 7.56861 7.20818 7.49847 7.85534 7.23041C8.50249 6.96235 9.05562 6.50841 9.44479 5.92598C9.83395 5.34356 10.0417 4.65881 10.0417 3.95834C10.0417 3.01903 9.66853 2.11819 9.00434 1.454C8.34015 0.789811 7.43931 0.416672 6.5 0.416672ZM6.5 6.08334C6.07971 6.08334 5.66887 5.95871 5.31941 5.72521C4.96996 5.49171 4.69759 5.15983 4.53676 4.77154C4.37592 4.38325 4.33384 3.95598 4.41583 3.54377C4.49782 3.13156 4.70021 2.75292 4.9974 2.45574C5.29458 2.15855 5.67322 1.95616 6.08543 1.87417C6.49764 1.79218 6.92491 1.83426 7.3132 1.99509C7.7015 2.15593 8.03337 2.4283 8.26687 2.77775C8.50037 3.12721 8.625 3.53805 8.625 3.95834C8.625 4.52192 8.40112 5.06243 8.0026 5.46094C7.60409 5.85946 7.06358 6.08334 6.5 6.08334ZM12.875 13.875V13.1667C12.875 11.8516 12.3526 10.5905 11.4227 9.6606C10.4929 8.73073 9.2317 8.20834 7.91667 8.20834H5.08333C3.7683 8.20834 2.50713 8.73073 1.57726 9.6606C0.647394 10.5905 0.125 11.8516 0.125 13.1667V13.875H1.54167V13.1667C1.54167 12.2274 1.91481 11.3265 2.579 10.6623C3.24319 9.99814 4.14402 9.625 5.08333 9.625H7.91667C8.85598 9.625 9.75681 9.99814 10.421 10.6623C11.0852 11.3265 11.4583 12.2274 11.4583 13.1667V13.875H12.875Z" fill="black"/>
</svg>
