<svg width="24" height="26" viewBox="0 0 24 26" fill="none" xmlns="http://www.w3.org/2000/svg">
<path d="M11.9137 1.5725C12.0685 1.3788 12.2602 1.21773 12.4777 1.09861C12.6952 0.979488 12.9341 0.904684 13.1807 0.878528C13.4272 0.852371 13.6766 0.87538 13.9142 0.946224C14.1518 1.01707 14.373 1.13434 14.565 1.29125L20.6813 6.28625C21.0176 6.56088 21.2482 6.94375 21.3337 7.36949C21.4192 7.79522 21.3543 8.23743 21.15 8.62063C20.6153 8.4572 20.0592 8.37441 19.5 8.375H18.9375L19.4963 7.7375L16.275 5.10687L13.6181 8.37687H11.2012L14.8219 3.92188L13.3781 2.7425L8.88187 8.375H6.48188L11.9137 1.5725V1.5725ZM16.6875 17.75C16.4389 17.75 16.2004 17.8488 16.0246 18.0246C15.8488 18.2004 15.75 18.4389 15.75 18.6875C15.75 18.9361 15.8488 19.1746 16.0246 19.3504C16.2004 19.5262 16.4389 19.625 16.6875 19.625H18.5625C18.8111 19.625 19.0496 19.5262 19.2254 19.3504C19.4012 19.1746 19.5 18.9361 19.5 18.6875C19.5 18.4389 19.4012 18.2004 19.2254 18.0246C19.0496 17.8488 18.8111 17.75 18.5625 17.75H16.6875ZM2.625 9.3125C2.625 9.06386 2.72377 8.8254 2.89959 8.64959C3.0754 8.47377 3.31386 8.375 3.5625 8.375H4.60875L6.09938 6.5H3.5625C2.81658 6.5 2.10121 6.79632 1.57376 7.32376C1.04632 7.85121 0.75 8.56658 0.75 9.3125V20.5625C0.75 21.8057 1.24386 22.998 2.12294 23.8771C3.00201 24.7561 4.1943 25.25 5.4375 25.25H19.5C20.4946 25.25 21.4484 24.8549 22.1516 24.1516C22.8549 23.4484 23.25 22.4946 23.25 21.5V14C23.25 13.0054 22.8549 12.0516 22.1516 11.3483C21.4484 10.6451 20.4946 10.25 19.5 10.25H3.5625C3.31386 10.25 3.0754 10.1512 2.89959 9.97541C2.72377 9.7996 2.625 9.56114 2.625 9.3125ZM2.625 20.5625V11.9656C2.9175 12.0687 3.23438 12.125 3.5625 12.125H19.5C19.9973 12.125 20.4742 12.3225 20.8258 12.6742C21.1775 13.0258 21.375 13.5027 21.375 14V21.5C21.375 21.9973 21.1775 22.4742 20.8258 22.8258C20.4742 23.1775 19.9973 23.375 19.5 23.375H5.4375C4.69158 23.375 3.97621 23.0787 3.44876 22.5512C2.92132 22.0238 2.625 21.3084 2.625 20.5625Z" fill="#656565"/>
</svg>


